<svg xmlns="http://www.w3.org/2000/svg" width="26.459" height="26.459" viewBox="0 0 26.459 26.459">
  <path id="Path_3" data-name="Path 3" d="M13.23,2.352a40.564,40.564,0,0,1,5.292.147,6.818,6.818,0,0,1,2.5.441,5.162,5.162,0,0,1,2.5,2.5,6.818,6.818,0,0,1,.441,2.5c0,1.323.147,1.764.147,5.292a40.564,40.564,0,0,1-.147,5.292,6.818,6.818,0,0,1-.441,2.5,5.162,5.162,0,0,1-2.5,2.5,6.818,6.818,0,0,1-2.5.441c-1.323,0-1.764.147-5.292.147a40.564,40.564,0,0,1-5.292-.147,6.818,6.818,0,0,1-2.5-.441,5.162,5.162,0,0,1-2.5-2.5,6.818,6.818,0,0,1-.441-2.5c0-1.323-.147-1.764-.147-5.292A40.564,40.564,0,0,1,2.5,7.938a6.818,6.818,0,0,1,.441-2.5,5.279,5.279,0,0,1,1.029-1.47A2.485,2.485,0,0,1,5.439,2.94a6.818,6.818,0,0,1,2.5-.441,40.564,40.564,0,0,1,5.292-.147M13.23,0A43.433,43.433,0,0,0,7.791.147,9.075,9.075,0,0,0,4.557.735,5.754,5.754,0,0,0,2.2,2.2,5.754,5.754,0,0,0,.735,4.557,6.7,6.7,0,0,0,.147,7.791,43.433,43.433,0,0,0,0,13.23a43.433,43.433,0,0,0,.147,5.439A9.075,9.075,0,0,0,.735,21.9,5.754,5.754,0,0,0,2.2,24.254a5.754,5.754,0,0,0,2.352,1.47,9.075,9.075,0,0,0,3.234.588,43.433,43.433,0,0,0,5.439.147,43.433,43.433,0,0,0,5.439-.147,9.075,9.075,0,0,0,3.234-.588A6.167,6.167,0,0,0,25.724,21.9a9.075,9.075,0,0,0,.588-3.234c0-1.47.147-1.911.147-5.439a43.433,43.433,0,0,0-.147-5.439,9.075,9.075,0,0,0-.588-3.234A5.754,5.754,0,0,0,24.254,2.2,5.754,5.754,0,0,0,21.9.735,9.075,9.075,0,0,0,18.668.147,43.433,43.433,0,0,0,13.23,0m0,6.468A6.653,6.653,0,0,0,6.468,13.23,6.762,6.762,0,1,0,13.23,6.468m0,11.172a4.331,4.331,0,0,1-4.41-4.41,4.331,4.331,0,0,1,4.41-4.41,4.331,4.331,0,0,1,4.41,4.41,4.331,4.331,0,0,1-4.41,4.41M20.285,4.557A1.617,1.617,0,1,0,21.9,6.174a1.631,1.631,0,0,0-1.617-1.617" fill="#fff" fill-rule="evenodd"/>
</svg>
