<svg xmlns="http://www.w3.org/2000/svg" width="93" height="93" viewBox="0 0 93 93">
  <g id="Group_1322" data-name="Group 1322" transform="translate(-615 -827)">
    <circle id="Ellipse_271" data-name="Ellipse 271" cx="46.5" cy="46.5" r="46.5" transform="translate(615 827)" fill="#44929f"/>
    <path id="Icon_awesome-user-tie" data-name="Icon awesome-user-tie" d="M22.75,26a13,13,0,1,0-13-13A13,13,0,0,0,22.75,26Zm9.73,3.311L27.625,48.75l-3.25-13.812,3.25-5.687h-9.75l3.25,5.688L17.875,48.75,13.02,29.311A13.626,13.626,0,0,0,0,42.9v4.225A4.876,4.876,0,0,0,4.875,52h35.75A4.876,4.876,0,0,0,45.5,47.125V42.9A13.626,13.626,0,0,0,32.48,29.311Z" transform="translate(639 848)" fill="#fff"/>
  </g>
</svg>
